<mxfile host="app.diagrams.net" modified="2022-01-29T15:32:18.825Z" agent="5.0 (Windows NT 10.0; Win64; x64) AppleWebKit/537.36 (KHTML, like Gecko) Chrome/97.0.4692.99 Safari/537.36" etag="Jg1exYPKrQpKnes-MN59" version="16.4.7" type="github">
  <diagram name="Page-1" id="7a6c530e-6e37-e111-ec74-82921da8cc10">
    <mxGraphModel dx="1237" dy="1946" grid="0" gridSize="10" guides="1" tooltips="1" connect="1" arrows="1" fold="1" page="0" pageScale="1.5" pageWidth="1169" pageHeight="826" background="none" math="0" shadow="0">
      <root>
        <mxCell id="0" style=";html=1;" />
        <mxCell id="1" style=";html=1;" parent="0" />
        <mxCell id="A1x-iHMKTp5z-PJOP39T-1" value="跨平台云存储系统业务模块" style="text;html=1;align=center;verticalAlign=middle;resizable=0;points=[];autosize=1;strokeColor=none;fillColor=none;fontSize=32;" vertex="1" parent="1">
          <mxGeometry x="653" y="-1014" width="394" height="42" as="geometry" />
        </mxCell>
        <mxCell id="A1x-iHMKTp5z-PJOP39T-3" value="" style="whiteSpace=wrap;html=1;fontSize=22;labelBackgroundColor=none;labelBorderColor=none;shadow=1;dashed=1;dashPattern=1 4;fillColor=#f5f5f5;fontColor=#333333;strokeColor=none;strokeWidth=0;glass=0;rounded=0;" vertex="1" parent="1">
          <mxGeometry x="530" y="-916" width="650" height="387" as="geometry" />
        </mxCell>
        <mxCell id="A1x-iHMKTp5z-PJOP39T-8" value="" style="whiteSpace=wrap;html=1;fontSize=22;labelBackgroundColor=none;labelBorderColor=none;fillColor=#f5f5f5;strokeColor=none;shadow=1;dashed=1;dashPattern=1 1;fontColor=#333333;" vertex="1" parent="1">
          <mxGeometry x="532" y="-512.5" width="650" height="167" as="geometry" />
        </mxCell>
        <mxCell id="A1x-iHMKTp5z-PJOP39T-12" value="收藏夹" style="rounded=1;whiteSpace=wrap;html=1;shadow=1;dashed=1;dashPattern=1 1;labelBackgroundColor=none;labelBorderColor=none;fontSize=18;fillColor=#b1ddf0;strokeColor=none;" vertex="1" parent="1">
          <mxGeometry x="985" y="-812.5" width="120" height="60" as="geometry" />
        </mxCell>
        <mxCell id="A1x-iHMKTp5z-PJOP39T-13" value="订单支付" style="rounded=1;whiteSpace=wrap;html=1;shadow=1;dashed=1;dashPattern=1 1;labelBackgroundColor=none;labelBorderColor=none;fontSize=18;fillColor=#b1ddf0;strokeColor=none;" vertex="1" parent="1">
          <mxGeometry x="790" y="-752.5" width="120" height="60" as="geometry" />
        </mxCell>
        <mxCell id="A1x-iHMKTp5z-PJOP39T-14" value="音视频播放" style="rounded=1;whiteSpace=wrap;html=1;shadow=1;dashed=1;dashPattern=1 1;labelBackgroundColor=none;labelBorderColor=none;fontSize=18;fillColor=#b1ddf0;strokeColor=none;" vertex="1" parent="1">
          <mxGeometry x="597" y="-674" width="120" height="60" as="geometry" />
        </mxCell>
        <mxCell id="A1x-iHMKTp5z-PJOP39T-15" value="第三方登录" style="rounded=1;whiteSpace=wrap;html=1;shadow=1;dashed=1;dashPattern=1 1;labelBackgroundColor=none;labelBorderColor=none;fontSize=18;fillColor=#b1ddf0;strokeColor=none;" vertex="1" parent="1">
          <mxGeometry x="985" y="-671.5" width="120" height="60" as="geometry" />
        </mxCell>
        <mxCell id="A1x-iHMKTp5z-PJOP39T-21" value="&lt;font style=&quot;vertical-align: inherit&quot;&gt;&lt;font style=&quot;vertical-align: inherit&quot;&gt;阿里云OSS&lt;br&gt;&lt;/font&gt;&lt;/font&gt;" style="rounded=1;whiteSpace=wrap;html=1;shadow=1;glass=0;dashed=1;dashPattern=1 4;labelBackgroundColor=none;labelBorderColor=none;fontSize=18;strokeWidth=0;arcSize=50;fillColor=#ffcd28;strokeColor=#d79b00;gradientColor=#ffa500;" vertex="1" parent="1">
          <mxGeometry x="1354" y="-805" width="158" height="55" as="geometry" />
        </mxCell>
        <mxCell id="A1x-iHMKTp5z-PJOP39T-22" value="&lt;font style=&quot;vertical-align: inherit&quot;&gt;&lt;font style=&quot;vertical-align: inherit&quot;&gt;阿里云视频点播&lt;br&gt;&lt;/font&gt;&lt;/font&gt;" style="rounded=1;whiteSpace=wrap;html=1;shadow=1;glass=0;dashed=1;dashPattern=1 4;labelBackgroundColor=none;labelBorderColor=none;fontSize=18;strokeWidth=0;arcSize=50;fillColor=#ffcd28;strokeColor=#d79b00;gradientColor=#ffa500;" vertex="1" parent="1">
          <mxGeometry x="1354" y="-669" width="158" height="55" as="geometry" />
        </mxCell>
        <mxCell id="A1x-iHMKTp5z-PJOP39T-23" value="&lt;font style=&quot;vertical-align: inherit&quot;&gt;&lt;font style=&quot;vertical-align: inherit&quot;&gt;阿里云短信&lt;br&gt;&lt;/font&gt;&lt;/font&gt;" style="rounded=1;whiteSpace=wrap;html=1;shadow=1;glass=0;dashed=1;dashPattern=1 4;labelBackgroundColor=none;labelBorderColor=none;fontSize=18;strokeWidth=0;arcSize=50;fillColor=#ffcd28;strokeColor=#d79b00;gradientColor=#ffa500;" vertex="1" parent="1">
          <mxGeometry x="1354" y="-533" width="158" height="55" as="geometry" />
        </mxCell>
        <mxCell id="A1x-iHMKTp5z-PJOP39T-26" value="文件存储" style="rounded=1;whiteSpace=wrap;html=1;shadow=1;dashed=1;dashPattern=1 1;labelBackgroundColor=none;labelBorderColor=none;fontSize=18;fillColor=#b1ddf0;strokeColor=none;" vertex="1" parent="1">
          <mxGeometry x="597" y="-810" width="120" height="60" as="geometry" />
        </mxCell>
        <mxCell id="A1x-iHMKTp5z-PJOP39T-27" value="相册" style="rounded=1;whiteSpace=wrap;html=1;shadow=1;dashed=1;dashPattern=1 1;labelBackgroundColor=none;labelBorderColor=none;fontSize=18;fillColor=#b1ddf0;strokeColor=none;" vertex="1" parent="1">
          <mxGeometry x="790" y="-861.5" width="120" height="60" as="geometry" />
        </mxCell>
        <mxCell id="A1x-iHMKTp5z-PJOP39T-28" value="用户管理" style="rounded=1;whiteSpace=wrap;html=1;shadow=1;dashed=1;dashPattern=1 1;labelBackgroundColor=none;labelBorderColor=none;fontSize=18;fillColor=#f8cecc;strokeColor=#b85450;gradientColor=none;" vertex="1" parent="1">
          <mxGeometry x="591" y="-459" width="120" height="60" as="geometry" />
        </mxCell>
        <mxCell id="A1x-iHMKTp5z-PJOP39T-29" value="文件管理" style="rounded=1;whiteSpace=wrap;html=1;shadow=1;dashed=1;dashPattern=1 1;labelBackgroundColor=none;labelBorderColor=none;fontSize=18;fillColor=#f8cecc;strokeColor=#b85450;gradientColor=none;" vertex="1" parent="1">
          <mxGeometry x="788" y="-459" width="120" height="60" as="geometry" />
        </mxCell>
        <mxCell id="A1x-iHMKTp5z-PJOP39T-30" value="网站管理" style="rounded=1;whiteSpace=wrap;html=1;shadow=1;dashed=1;dashPattern=1 1;labelBackgroundColor=none;labelBorderColor=none;fontSize=18;fillColor=#f8cecc;strokeColor=#b85450;gradientColor=none;" vertex="1" parent="1">
          <mxGeometry x="985" y="-459" width="120" height="60" as="geometry" />
        </mxCell>
        <mxCell id="A1x-iHMKTp5z-PJOP39T-31" value="资源探索" style="rounded=1;whiteSpace=wrap;html=1;shadow=1;dashed=1;dashPattern=1 1;labelBackgroundColor=none;labelBorderColor=none;fontSize=18;fillColor=#b1ddf0;strokeColor=none;" vertex="1" parent="1">
          <mxGeometry x="790" y="-642.5" width="120" height="60" as="geometry" />
        </mxCell>
        <mxCell id="A1x-iHMKTp5z-PJOP39T-32" value="" style="rounded=0;whiteSpace=wrap;html=1;shadow=0;glass=0;dashed=1;labelBackgroundColor=none;labelBorderColor=none;fontSize=18;strokeWidth=3;fillColor=none;gradientColor=#7ea6e0;strokeColor=#6C8EBF;" vertex="1" parent="1">
          <mxGeometry x="1317" y="-892" width="236.5" height="508" as="geometry" />
        </mxCell>
        <mxCell id="A1x-iHMKTp5z-PJOP39T-33" value="" style="shape=doubleArrow;whiteSpace=wrap;html=1;rounded=1;shadow=0;glass=0;labelBackgroundColor=none;labelBorderColor=none;fontSize=18;strokeColor=#0e8088;strokeWidth=2;fillColor=#b0e3e6;" vertex="1" parent="1">
          <mxGeometry x="1200" y="-858" width="100" height="60" as="geometry" />
        </mxCell>
        <mxCell id="A1x-iHMKTp5z-PJOP39T-34" value="" style="shape=doubleArrow;whiteSpace=wrap;html=1;rounded=1;shadow=0;glass=0;labelBackgroundColor=none;labelBorderColor=none;fontSize=18;strokeColor=#ae4132;strokeWidth=2;fillColor=#fad9d5;" vertex="1" parent="1">
          <mxGeometry x="1197" y="-470" width="100" height="60" as="geometry" />
        </mxCell>
        <mxCell id="A1x-iHMKTp5z-PJOP39T-36" value="" style="rounded=0;whiteSpace=wrap;html=1;shadow=0;glass=0;dashed=1;labelBackgroundColor=none;labelBorderColor=none;fontSize=18;strokeWidth=3;fillColor=none;gradientColor=#7ea6e0;strokeColor=#6C8EBF;" vertex="1" parent="1">
          <mxGeometry x="149.25" y="-925" width="236.5" height="642" as="geometry" />
        </mxCell>
        <mxCell id="A1x-iHMKTp5z-PJOP39T-37" value="" style="shape=doubleArrow;whiteSpace=wrap;html=1;rounded=1;shadow=0;glass=0;labelBackgroundColor=none;labelBorderColor=none;fontSize=18;strokeColor=#0e8088;strokeWidth=2;fillColor=#b0e3e6;" vertex="1" parent="1">
          <mxGeometry x="414" y="-750" width="100" height="60" as="geometry" />
        </mxCell>
        <mxCell id="A1x-iHMKTp5z-PJOP39T-38" value="" style="shape=doubleArrow;whiteSpace=wrap;html=1;rounded=1;shadow=0;glass=0;labelBackgroundColor=none;labelBorderColor=none;fontSize=18;strokeColor=#ae4132;strokeWidth=2;fillColor=#fad9d5;" vertex="1" parent="1">
          <mxGeometry x="417" y="-470" width="100" height="60" as="geometry" />
        </mxCell>
        <mxCell id="A1x-iHMKTp5z-PJOP39T-41" value="" style="shape=actor;whiteSpace=wrap;html=1;rounded=1;shadow=0;glass=0;labelBackgroundColor=none;labelBorderColor=none;fontSize=18;strokeColor=#56517e;strokeWidth=2;fillColor=#d0cee2;" vertex="1" parent="1">
          <mxGeometry x="234" y="-771" width="67" height="88" as="geometry" />
        </mxCell>
        <mxCell id="A1x-iHMKTp5z-PJOP39T-43" value="" style="shape=actor;whiteSpace=wrap;html=1;rounded=1;shadow=0;glass=0;labelBackgroundColor=none;labelBorderColor=none;fontSize=18;strokeColor=#56517e;strokeWidth=2;fillColor=#d0cee2;" vertex="1" parent="1">
          <mxGeometry x="234" y="-490" width="67" height="88" as="geometry" />
        </mxCell>
        <mxCell id="A1x-iHMKTp5z-PJOP39T-44" value="用户" style="text;html=1;strokeColor=none;fillColor=none;align=center;verticalAlign=middle;whiteSpace=wrap;rounded=0;shadow=0;glass=0;labelBackgroundColor=none;labelBorderColor=none;fontSize=18;" vertex="1" parent="1">
          <mxGeometry x="237.5" y="-656.5" width="60" height="30" as="geometry" />
        </mxCell>
        <mxCell id="A1x-iHMKTp5z-PJOP39T-45" value="运营" style="text;html=1;strokeColor=none;fillColor=none;align=center;verticalAlign=middle;whiteSpace=wrap;rounded=0;shadow=0;glass=0;labelBackgroundColor=none;labelBorderColor=none;fontSize=18;" vertex="1" parent="1">
          <mxGeometry x="237.5" y="-375.5" width="60" height="30" as="geometry" />
        </mxCell>
      </root>
    </mxGraphModel>
  </diagram>
</mxfile>
